<?xml version="1.0" encoding="UTF-8"?>
<svg xmlns="http://www.w3.org/2000/svg" xmlns:xlink="http://www.w3.org/1999/xlink" width="400pt" height="800pt" viewBox="0 0 400 800" version="1.1">
<g id="surface1">
<path style=" stroke:none;fill-rule:nonzero;fill:rgb(92.156863%,72.941176%,8.627451%);fill-opacity:1;" d="M 0 223.542969 C 0 101.863281 49.503906 2.855469 110.34375 2.855469 L 282.757812 2.855469 C 343.601562 2.855469 400 101.863281 400 223.542969 L 400 444.234375 C 400 561.269531 347.28125 657.046875 289.65625 664.21875 L 289.65625 609.75 C 289.65625 602.125 286.566406 595.957031 282.757812 595.957031 C 278.953125 595.957031 275.863281 602.125 275.863281 609.75 L 275.863281 797.144531 L 266.488281 778.398438 C 229.898438 705.226562 181.253906 664.925781 129.523438 664.925781 L 110.34375 664.925781 C 49.503906 664.925781 0 565.917969 0 444.234375 Z M 0 223.542969 "/>
<path style=" stroke:none;fill-rule:nonzero;fill:rgb(100%,100%,100%);fill-opacity:1;" d="M 206.898438 251.132812 L 110.34375 251.132812 C 106.53125 251.132812 103.449219 244.953125 103.449219 237.339844 C 103.449219 229.722656 106.53125 223.542969 110.34375 223.542969 L 206.898438 223.542969 C 210.710938 223.542969 213.792969 229.722656 213.792969 237.339844 C 213.792969 244.953125 210.710938 251.132812 206.898438 251.132812 Z M 206.898438 251.132812 "/>
<path style=" stroke:none;fill-rule:nonzero;fill:rgb(100%,100%,100%);fill-opacity:1;" d="M 296.550781 361.476562 L 110.34375 361.476562 C 106.53125 361.476562 103.449219 355.296875 103.449219 347.683594 C 103.449219 340.070312 106.53125 333.890625 110.34375 333.890625 L 296.550781 333.890625 C 300.367188 333.890625 303.449219 340.070312 303.449219 347.683594 C 303.449219 355.296875 300.367188 361.476562 296.550781 361.476562 Z M 296.550781 361.476562 "/>
<path style=" stroke:none;fill-rule:nonzero;fill:rgb(100%,100%,100%);fill-opacity:1;" d="M 296.550781 471.820312 L 110.34375 471.820312 C 106.53125 471.820312 103.449219 465.640625 103.449219 458.027344 C 103.449219 450.414062 106.53125 444.234375 110.34375 444.234375 L 296.550781 444.234375 C 300.367188 444.234375 303.449219 450.414062 303.449219 458.027344 C 303.449219 465.640625 300.367188 471.820312 296.550781 471.820312 Z M 296.550781 471.820312 "/>
</g>
</svg>
